<?xml version="1.0" encoding="utf-8"?>
<!-- Generator: Adobe Illustrator 22.1.0, SVG Export Plug-In . SVG Version: 6.00 Build 0)  -->
<svg version="1.1" id="Layer_1" xmlns="http://www.w3.org/2000/svg" xmlns:xlink="http://www.w3.org/1999/xlink" x="0px" y="0px"
	 viewBox="0 0 550 550" style="enable-background:new 0 0 550 550;" xml:space="preserve">
<style type="text/css">
	.st0{fill:#AEEFFF;}
	.st1{fill:#88EEFF;}
	.st2{fill:#3CD6AA;}
	.st3{fill:#65EFC8;}
	.st4{fill:#73CBEA;}
	.st5{fill:#757575;}
</style>
<g>
	<path class="st0" d="M449.5,372.7l-194-153.4L191.9,27l-92,30.4l63.6,192.3L99.2,488.5c-10,37.2,25.3,70.7,61.9,58.6l273.6-90.5
		C471.3,444.5,479.8,396.6,449.5,372.7z"/>
</g>
<g>
	<path class="st1" d="M145.7,42.3L99.9,57.4l63.6,192.3L99.2,488.5c-10,37.2,25.3,70.7,61.9,58.6l136.6-45.2L145.7,42.3L145.7,42.3z
		"/>
</g>
<path class="st2" d="M434.5,391.7c-12.9-14-29.1-17.6-36.6-20.1c-13-4.3-30.2-15.3-47.3-45.5c-0.8-0.5-2-1.1-3.5-1.7
	c-0.1-0.1-1.9-0.7-3.8-1.2c-6.5-1.6-11.7-1.3-13.4-1.3c-30.6,1.4-61.2-0.8-91.8-0.4c-12.2,0.2-30,0.3-52-0.5c-1.3,0-3.2,0.1-5.5,0.5
	c-1.4,0.3-6.1,1.1-9.3,4.1c-3.7,3.3-4.8,7.4-5.1,9.1c-14.6,53.4-29.3,106.8-43.9,160.2c-2.4,8.8,0.2,17.7,6.7,23.9
	c6.6,6.2,15.6,8.2,24.2,5.4l273.6-90.5c8.6-2.8,14.7-9.9,15.1-31.5C440.7,399.5,438.2,395.7,434.5,391.7z"/>
<g>
	<path class="st3" d="M353.3,327.7c-0.8-0.5-2.7-1.9-5.6-3.1c-5.4-2.3-10.2-2.7-12.9-2.8c-7.5-0.3-45.1-0.6-96.7-0.2
		c17.4,52.5,34.7,104.9,52.1,157.4l137-45.3c8.6-2.8,14.7-9.9,16.2-18.8c1.6-8.9-1.7-17.6-8.8-23.2
		C400.7,364.9,385.4,349.5,353.3,327.7z"/>
</g>
<g>
	<path class="st4" d="M189.7,27.8l-88,29.1c-8.1,2.7-16.6-1.1-19-8.4l0,0c-2.5-7.3,2.1-15.4,10.2-18.1l88-29.1
		c8.1-2.7,16.6,1.1,19,8.4l0,0C202.4,17,197.8,25.1,189.7,27.8z"/>
</g>
<g>
	<circle class="st3" cx="208" cy="409.8" r="16.1"/>
</g>
<g>
	<circle class="st2" cx="377.2" cy="407.6" r="16.1"/>
</g>
<g>
	<g>
		<path class="st2" d="M311,387.1c-2.1,0.7-4.3,0.5-6.2-0.4c-1.9-1-3.4-2.7-4-4.7c-0.7-2-0.6-4.2,0.4-6.2c1.9-3.8,7-5.5,10.8-3.6
			c1.9,1,3.4,2.6,4.1,4.7s0.5,4.3-0.5,6.2C314.7,385,313,386.5,311,387.1z"/>
	</g>
</g>
<g>
	<g>
		<path class="st3" d="M205.1,350.3c-2.1,0.7-4.3,0.5-6.2-0.4c-1.9-1-3.4-2.7-4-4.7c-0.7-2-0.6-4.2,0.4-6.2c1.9-3.8,7-5.4,10.8-3.6
			c1.9,1,3.4,2.7,4.1,4.7c0.7,2,0.5,4.3-0.4,6.2C208.8,348.2,207.1,349.7,205.1,350.3z"/>
	</g>
</g>
<g>
	<g>
		<path class="st1" d="M242.2,256.9c-2.1,0.7-4.3,0.5-6.2-0.4c-1.9-1-3.4-2.7-4-4.7c-0.7-2-0.6-4.2,0.4-6.2c1.9-3.8,7-5.4,10.8-3.6
			c1.9,1,3.4,2.7,4.1,4.7c0.7,2,0.5,4.3-0.5,6.2C245.9,254.7,244.1,256.2,242.2,256.9z"/>
	</g>
</g>
<g>
	<g>
		<path class="st0" d="M186.1,215.9c-2.1,0.7-4.3,0.5-6.2-0.5c-1.9-0.9-3.3-2.6-4-4.6c-0.7-2-0.6-4.2,0.4-6.2
			c1.9-3.8,7-5.5,10.8-3.6c1.9,1,3.4,2.7,4.1,4.7c0.7,2,0.5,4.3-0.5,6.2C189.8,213.7,188.1,215.2,186.1,215.9z"/>
	</g>
</g>
<g>
	<g>
		<path class="st0" d="M186.1,292.3c-2.1,0.7-4.3,0.5-6.2-0.5c-1.9-0.9-3.3-2.6-4-4.6c-0.7-2-0.6-4.2,0.4-6.2
			c1.9-3.8,7-5.5,10.8-3.6c1.9,1,3.4,2.7,4.1,4.7c0.7,2,0.5,4.3-0.5,6.2C189.8,290.2,188.1,291.7,186.1,292.3z"/>
	</g>
</g>
<g>
	<g>
		<path class="st3" d="M246.8,450.8c-2.1,0.7-4.3,0.5-6.2-0.4c-1.9-1-3.4-2.7-4-4.7c-0.7-2-0.6-4.2,0.4-6.2c1.9-3.8,7-5.5,10.8-3.6
			c1.9,1,3.4,2.7,4.1,4.7c0.7,2,0.5,4.3-0.5,6.2C250.5,448.7,248.8,450.2,246.8,450.8z"/>
	</g>
</g>
<g>
	<g>
		<path class="st3" d="M180.6,481.2c-2.1,0.7-4.3,0.5-6.2-0.4c-1.9-1-3.4-2.7-4-4.7c-0.7-2-0.6-4.2,0.4-6.2c1.9-3.8,7-5.5,10.8-3.6
			c1.9,1,3.4,2.7,4.1,4.7c0.7,2,0.5,4.3-0.5,6.2C184.3,479,182.6,480.5,180.6,481.2z"/>
	</g>
</g>
<g>
	<g>
		<path class="st1" d="M292,304.1c-2.1,0.7-4.3,0.5-6.2-0.4c-1.9-1-3.4-2.7-4-4.7c-0.7-2-0.6-4.2,0.4-6.2c1.9-3.8,7-5.4,10.8-3.6
			c1.9,1,3.4,2.7,4.1,4.7c0.7,2,0.5,4.3-0.5,6.2C295.7,301.9,294,303.4,292,304.1z"/>
	</g>
</g>
<path class="st4" d="M163.5,249.7"/>
<g>
	<path class="st5" d="M338,414.2l-54.3,24.4c-2,0.9-4.4,0-5.3-2l-0.4-0.9c-0.9-2,0-4.4,2-5.3l54.3-24.4c2-0.9,4.4,0,5.3,2l0.4,0.9
		C340.9,410.9,340,413.3,338,414.2z"/>
	<path class="st5" d="M317.1,396.7l-32.6,14.7c-2,0.9-4.4,0-5.3-2l0,0c-0.9-2,0-4.4,2-5.3l32.6-14.7c2-0.9,4.4,0,5.3,2l0,0
		C320,393.4,319.1,395.8,317.1,396.7z"/>
	<path class="st5" d="M318.3,370.3L264,394.7c-2,0.9-4.4,0-5.3-2l-0.4-0.9c-0.9-2,0-4.4,2-5.3l54.3-24.4c2-0.9,4.4,0,5.3,2l0.4,0.9
		C321.2,367.1,320.3,369.4,318.3,370.3z"/>
	<path class="st5" d="M297.4,352.8l-32.6,14.7c-2,0.9-4.4,0-5.3-2l0,0c-0.9-2,0-4.4,2-5.3l32.6-14.7c2-0.9,4.4,0,5.3,2l0,0
		C300.3,349.6,299.4,351.9,297.4,352.8z"/>
	<path class="st5" d="M298.6,326.5l-54.3,24.4c-2,0.9-4.4,0-5.3-2l-0.4-0.9c-0.9-2,0-4.4,2-5.3l54.3-24.4c2-0.9,4.4,0,5.3,2l0.4,0.9
		C301.5,323.2,300.6,325.6,298.6,326.5z"/>
	<path class="st5" d="M278.9,282.7l-54.3,24.4c-2,0.9-4.4,0-5.3-2l-0.4-0.9c-0.9-2,0-4.4,2-5.3l54.3-24.4c2-0.9,4.4,0,5.3,2l0.4,0.9
		C281.8,279.4,280.9,281.8,278.9,282.7z"/>
	<path class="st5" d="M277.7,309l-32.6,14.7c-2,0.9-4.4,0-5.3-2l0,0c-0.9-2,0-4.4,2-5.3l32.6-14.7c2-0.9,4.4,0,5.3,2l0,0
		C280.6,305.7,279.7,308.1,277.7,309z"/>
</g>
<path class="st2" d="M401.8,48.7"/>
<path class="st2" d="M238.3,322"/>
<path class="st1" d="M331.5,321.8"/>
</svg>
