<?xml version="1.0" encoding="utf-8"?>
<!-- Generator: Adobe Illustrator 22.1.0, SVG Export Plug-In . SVG Version: 6.00 Build 0)  -->
<svg version="1.1" id="Layer_1" xmlns="http://www.w3.org/2000/svg" xmlns:xlink="http://www.w3.org/1999/xlink" x="0px" y="0px"
	 viewBox="0 0 386 549.2" style="enable-background:new 0 0 386 549.2;" xml:space="preserve">
<style type="text/css">
	.st0{fill:#AEEFFF;}
	.st1{fill:#88EEFF;}
	.st2{fill:#3CD6AA;}
	.st3{fill:#65EFC8;}
	.st4{fill:#73CBEA;}
	.st5{fill:#757575;}
</style>
<g>
	<path class="st0" d="M367.5,372.3L173.5,218.9L109.9,26.6L17.9,57l63.6,192.3L17.2,488.1c-10,37.2,25.3,70.7,61.9,58.6l273.6-90.5
		C389.3,444.1,397.8,396.2,367.5,372.3z"/>
</g>
<g>
	<path class="st1" d="M63.7,41.9L17.9,57l63.6,192.3L17.2,488.1c-10,37.2,25.3,70.7,61.9,58.6l136.6-45.2L63.7,41.9L63.7,41.9z"/>
</g>
<path class="st2" d="M352.5,391.3c-12.9-14-29.1-17.6-36.6-20.1c-13-4.3-30.2-15.3-47.3-45.5c-0.8-0.5-2-1.1-3.5-1.7
	c-0.1-0.1-1.9-0.7-3.8-1.2c-6.5-1.6-11.7-1.3-13.4-1.3c-30.6,1.4-61.2-0.8-91.8-0.4c-12.2,0.2-30,0.3-52-0.5c-1.3,0-3.2,0.1-5.5,0.5
	c-1.4,0.3-6.1,1.1-9.3,4.1c-3.7,3.3-4.8,7.4-5.1,9.1c-14.6,53.4-29.3,106.8-43.9,160.2c-2.4,8.8,0.2,17.7,6.7,23.9
	c6.6,6.2,15.6,8.2,24.2,5.4l273.6-90.5c8.6-2.8,14.7-9.9,15.1-31.5C358.7,399.1,356.2,395.3,352.5,391.3z"/>
<g>
	<path class="st3" d="M271.3,327.3c-0.8-0.5-2.7-1.9-5.6-3.1c-5.4-2.3-10.2-2.7-12.9-2.8c-7.5-0.3-45.1-0.6-96.7-0.2
		c17.4,52.5,34.7,104.9,52.1,157.4l137-45.3c8.6-2.8,14.7-9.9,16.2-18.8c1.6-8.9-1.7-17.6-8.8-23.2
		C318.7,364.5,303.4,349.1,271.3,327.3z"/>
</g>
<g>
	<path class="st4" d="M107.7,27.4l-88,29.1c-8.1,2.7-16.6-1.1-19-8.4l0,0C-1.8,40.8,2.8,32.7,10.9,30l88-29.1
		c8.1-2.7,16.6,1.1,19,8.4l0,0C120.4,16.6,115.8,24.7,107.7,27.4z"/>
</g>
<g>
	<circle class="st3" cx="126" cy="409.4" r="16.1"/>
</g>
<g>
	<circle class="st2" cx="295.2" cy="407.2" r="16.1"/>
</g>
<g>
	<g>
		<path class="st2" d="M229,386.7c-2.1,0.7-4.3,0.5-6.2-0.4c-1.9-1-3.4-2.7-4-4.7c-0.7-2-0.6-4.2,0.4-6.2c1.9-3.8,7-5.5,10.8-3.6
			c1.9,1,3.4,2.6,4.1,4.7s0.5,4.3-0.5,6.2C232.7,384.6,231,386.1,229,386.7z"/>
	</g>
</g>
<g>
	<g>
		<path class="st3" d="M123.1,349.9c-2.1,0.7-4.3,0.5-6.2-0.4c-1.9-1-3.4-2.7-4-4.7c-0.7-2-0.6-4.2,0.4-6.2c1.9-3.8,7-5.4,10.8-3.6
			c1.9,1,3.4,2.7,4.1,4.7c0.7,2,0.5,4.3-0.4,6.2C126.8,347.8,125.1,349.3,123.1,349.9z"/>
	</g>
</g>
<g>
	<g>
		<path class="st1" d="M160.2,256.5c-2.1,0.7-4.3,0.5-6.2-0.4c-1.9-1-3.4-2.7-4-4.7c-0.7-2-0.6-4.2,0.4-6.2c1.9-3.8,7-5.4,10.8-3.6
			c1.9,1,3.4,2.7,4.1,4.7c0.7,2,0.5,4.3-0.5,6.2C163.9,254.3,162.1,255.8,160.2,256.5z"/>
	</g>
</g>
<g>
	<g>
		<path class="st0" d="M104.1,215.5c-2.1,0.7-4.3,0.5-6.2-0.5c-1.9-0.9-3.3-2.6-4-4.6c-0.7-2-0.6-4.2,0.4-6.2
			c1.9-3.8,7-5.5,10.8-3.6c1.9,1,3.4,2.7,4.1,4.7c0.7,2,0.5,4.3-0.5,6.2C107.8,213.3,106.1,214.8,104.1,215.5z"/>
	</g>
</g>
<g>
	<g>
		<path class="st0" d="M104.1,291.9c-2.1,0.7-4.3,0.5-6.2-0.5c-1.9-0.9-3.3-2.6-4-4.6c-0.7-2-0.6-4.2,0.4-6.2
			c1.9-3.8,7-5.5,10.8-3.6c1.9,1,3.4,2.7,4.1,4.7c0.7,2,0.5,4.3-0.5,6.2C107.8,289.8,106.1,291.3,104.1,291.9z"/>
	</g>
</g>
<g>
	<g>
		<path class="st3" d="M164.8,450.4c-2.1,0.7-4.3,0.5-6.2-0.4c-1.9-1-3.4-2.7-4-4.7c-0.7-2-0.6-4.2,0.4-6.2c1.9-3.8,7-5.5,10.8-3.6
			c1.9,1,3.4,2.7,4.1,4.7c0.7,2,0.5,4.3-0.5,6.2C168.5,448.3,166.8,449.8,164.8,450.4z"/>
	</g>
</g>
<g>
	<g>
		<path class="st3" d="M98.6,480.8c-2.1,0.7-4.3,0.5-6.2-0.4c-1.9-1-3.4-2.7-4-4.7c-0.7-2-0.6-4.2,0.4-6.2c1.9-3.8,7-5.5,10.8-3.6
			c1.9,1,3.4,2.7,4.1,4.7c0.7,2,0.5,4.3-0.5,6.2C102.3,478.6,100.6,480.1,98.6,480.8z"/>
	</g>
</g>
<g>
	<g>
		<path class="st1" d="M210,303.7c-2.1,0.7-4.3,0.5-6.2-0.4c-1.9-1-3.4-2.7-4-4.7c-0.7-2-0.6-4.2,0.4-6.2c1.9-3.8,7-5.4,10.8-3.6
			c1.9,1,3.4,2.7,4.1,4.7c0.7,2,0.5,4.3-0.5,6.2C213.7,301.5,212,303,210,303.7z"/>
	</g>
</g>
<path class="st4" d="M81.5,249.3"/>
<g>
	<path class="st5" d="M256,413.8l-54.3,24.4c-2,0.9-4.4,0-5.3-2l-0.4-0.9c-0.9-2,0-4.4,2-5.3l54.3-24.4c2-0.9,4.4,0,5.3,2l0.4,0.9
		C258.9,410.5,258,412.9,256,413.8z"/>
	<path class="st5" d="M235.1,396.3l-32.6,14.7c-2,0.9-4.4,0-5.3-2l0,0c-0.9-2,0-4.4,2-5.3l32.6-14.7c2-0.9,4.4,0,5.3,2l0,0
		C238,393,237.1,395.4,235.1,396.3z"/>
	<path class="st5" d="M236.3,369.9l-54.3,24.4c-2,0.9-4.4,0-5.3-2l-0.4-0.9c-0.9-2,0-4.4,2-5.3l54.3-24.4c2-0.9,4.4,0,5.3,2l0.4,0.9
		C239.2,366.7,238.3,369,236.3,369.9z"/>
	<path class="st5" d="M215.4,352.4l-32.6,14.7c-2,0.9-4.4,0-5.3-2l0,0c-0.9-2,0-4.4,2-5.3l32.6-14.7c2-0.9,4.4,0,5.3,2v0
		C218.3,349.2,217.4,351.5,215.4,352.4z"/>
	<path class="st5" d="M216.6,326.1l-54.3,24.4c-2,0.9-4.4,0-5.3-2l-0.4-0.9c-0.9-2,0-4.4,2-5.3l54.3-24.4c2-0.9,4.4,0,5.3,2l0.4,0.9
		C219.5,322.8,218.6,325.2,216.6,326.1z"/>
	<path class="st5" d="M196.9,282.3l-54.3,24.4c-2,0.9-4.4,0-5.3-2l-0.4-0.9c-0.9-2,0-4.4,2-5.3l54.3-24.4c2-0.9,4.4,0,5.3,2l0.4,0.9
		C199.8,279,198.9,281.4,196.9,282.3z"/>
	<path class="st5" d="M195.7,308.6l-32.6,14.7c-2,0.9-4.4,0-5.3-2l0,0c-0.9-2,0-4.4,2-5.3l32.6-14.7c2-0.9,4.4,0,5.3,2h0
		C198.6,305.3,197.7,307.7,195.7,308.6z"/>
</g>
<path class="st2" d="M319.8,48.3"/>
<path class="st2" d="M156.3,321.6"/>
<path class="st1" d="M249.5,321.4"/>
</svg>
